<svg xmlns="http://www.w3.org/2000/svg" viewBox="0 0 32 32" fill="none">
  <!-- Background gradient -->
  <defs>
    <linearGradient id="grad" x1="0%" y1="0%" x2="100%" y2="100%">
      <stop offset="0%" style="stop-color:#3B82F6;stop-opacity:1" />
      <stop offset="100%" style="stop-color:#2563EB;stop-opacity:1" />
    </linearGradient>
  </defs>
  
  <!-- Background circle -->
  <circle cx="16" cy="16" r="16" fill="url(#grad)"/>
  
  <!-- 3D Cube icon -->
  <g stroke="white" stroke-width="2" stroke-linecap="round" stroke-linejoin="round">
    <!-- Top face -->
    <path d="M16 7 L10 10 L16 13 L22 10 Z" fill="white" fill-opacity="0.3"/>
    <!-- Left face -->
    <path d="M10 10 L10 20 L16 23 L16 13 Z" fill="white" fill-opacity="0.15"/>
    <!-- Right face -->
    <path d="M22 10 L22 20 L16 23 L16 13 Z" fill="white" fill-opacity="0.25"/>
    <!-- Edges -->
    <path d="M22 10 L16 7 L10 10 M22 10 L16 13 M10 10 L16 13 M10 10 L10 20 L16 23 M16 13 L16 23 M22 10 L22 20 L16 23"/>
  </g>
</svg>
